<svg fill="#000000" xmlns="http://www.w3.org/2000/svg"  viewBox="0 0 64 64" width="64px" height="64px"><path d="M 26 4 C 23.39 8 19 16 19 23 C 19 25.61 20.400781 27.110938 22.300781 27.960938 C 19.580781 28.110937 16.95 27.95 16 27 C 14.5 25.5 14.5 13 17 6.5 C 14 11 12 18 12 25 C 12 28 12.5 29.5 13 30 C 14.24 31.24 20.269375 30.429375 24.859375 30.109375 C 25.079375 29.649375 25.329375 29.229844 25.609375 28.839844 C 25.939375 28.339844 26.299453 27.889766 26.689453 27.509766 C 26.959453 27.249766 27.229766 27.029844 27.509766 26.839844 C 26.949766 26.969844 26.44 27.040469 26 26.980469 C 24.19 26.740469 23.28 25.68 23 24 C 22.42 20.51 23.5 13 26 4 z M 38 4 C 40.5 13 41.58 20.51 41 24 C 40.72 25.68 39.81 26.740469 38 26.980469 C 37.56 27.040469 37.050234 26.969844 36.490234 26.839844 C 36.770234 27.029844 37.040547 27.249766 37.310547 27.509766 C 37.700547 27.889766 38.060625 28.339844 38.390625 28.839844 C 38.670625 29.229844 38.920625 29.649375 39.140625 30.109375 C 43.730625 30.429375 49.76 31.24 51 30 C 51.5 29.5 52 28 52 25 C 52 18 50 11 47 6.5 C 49.5 13 49.5 25.5 48 27 C 47.05 27.95 44.419219 28.110938 41.699219 27.960938 C 43.599219 27.110937 45 25.61 45 23 C 45 16 40.61 8 38 4 z M 32 14 C 29.239 14 27 17.134 27 21 C 27 23.525014 28.592481 25.447362 30.019531 26.525391 C 27.118799 28.082222 25 32.961935 25 38.75 C 25 45.792 29 54.011719 32 54.011719 C 35 54.011719 39 45.792 39 38.75 C 39 32.961935 36.881201 28.082222 33.980469 26.525391 C 35.407519 25.447362 37 23.525014 37 21 C 37 17.134 34.761 14 32 14 z M 24.740234 30.339844 C 19.180234 31.399844 10.44 34.25 9.5 35.5 C 8 37.5 13 52 18 59 C 15.5 53 12.570312 39.300781 14.070312 37.800781 C 15.570312 36.300781 18.5 35.5 18.5 35.5 C 17.5 37.5 17.5 44.5 24 55.5 C 21.44 47.39 19.240313 38.550391 23.320312 34.900391 C 23.620312 33.190391 24.110234 31.649844 24.740234 30.339844 z M 39.259766 30.339844 C 39.889766 31.649844 40.379688 33.190391 40.679688 34.900391 C 44.759688 38.550391 42.56 47.39 40 55.5 C 46.5 44.5 46.5 37.5 45.5 35.5 C 45.5 35.5 48.429688 36.300781 49.929688 37.800781 C 51.429688 39.300781 48.5 53 46 59 C 51 52 56 37.5 54.5 35.5 C 53.56 34.25 44.819766 31.399844 39.259766 30.339844 z"/></svg>